<?xml version="1.0" encoding="UTF-8"?>
<svg width="760" height="200" viewBox="0 0 760 200" fill="none" xmlns="http://www.w3.org/2000/svg" role="img" aria-labelledby="title desc">
  <title id="title">SquareEdit logo light</title>
  <desc id="desc">Minimalist light version of the SquareEdit logo with white lettering and thin black outlines.</desc>

  <g transform="translate(24 28) scale(0.62)">
    <!-- Icon outline -->
    <path d="M92 36 H52 Q36 36 36 52 V92" fill="none" stroke="#000" stroke-width="16" stroke-linecap="round" stroke-linejoin="round"/>
    <path d="M164 36 H204 Q220 36 220 52 V92" fill="none" stroke="#000" stroke-width="16" stroke-linecap="round" stroke-linejoin="round"/>
    <path d="M36 164 V204 Q36 220 52 220 H92" fill="none" stroke="#000" stroke-width="16" stroke-linecap="round" stroke-linejoin="round"/>
    <path d="M164 220 H204 Q220 220 220 204 V164" fill="none" stroke="#000" stroke-width="16" stroke-linecap="round" stroke-linejoin="round"/>
    <rect x="92" y="92" width="72" height="72" fill="none" stroke="#000" stroke-width="14"/>

    <!-- Icon fill -->
    <path d="M92 36 H52 Q36 36 36 52 V92" fill="none" stroke="#FFF" stroke-width="12" stroke-linecap="round" stroke-linejoin="round"/>
    <path d="M164 36 H204 Q220 36 220 52 V92" fill="none" stroke="#FFF" stroke-width="12" stroke-linecap="round" stroke-linejoin="round"/>
    <path d="M36 164 V204 Q36 220 52 220 H92" fill="none" stroke="#FFF" stroke-width="12" stroke-linecap="round" stroke-linejoin="round"/>
    <path d="M164 220 H204 Q220 220 220 204 V164" fill="none" stroke="#FFF" stroke-width="12" stroke-linecap="round" stroke-linejoin="round"/>
    <rect x="92" y="92" width="72" height="72" fill="none" stroke="#FFF" stroke-width="10"/>
  </g>

  <path d="M 254.680 64.554 L 254.680 77.634 Q 249.597 75.357 244.751 74.205 Q 239.919 73.040 235.617 73.040 Q 229.911 73.040 227.170 74.615 Q 224.443 76.178 224.443 79.487 Q 224.443 81.976 226.284 83.366 Q 228.124 84.743 232.969 85.736 L 239.747 87.099 Q 250.047 89.178 254.389 93.401 Q 258.745 97.611 258.745 105.395 Q 258.745 115.602 252.681 120.593 Q 246.618 125.584 234.160 125.584 Q 228.296 125.584 222.378 124.459 Q 216.460 123.347 210.543 121.149 L 210.543 107.712 Q 216.460 110.850 221.981 112.451 Q 227.501 114.040 232.638 114.040 Q 237.854 114.040 240.621 112.306 Q 243.388 110.558 243.388 107.328 Q 243.388 104.442 241.508 102.867 Q 239.628 101.291 234.002 100.047 L 227.832 98.683 Q 218.565 96.697 214.276 92.355 Q 210.000 88.013 210.000 80.652 Q 210.000 71.425 215.957 66.460 Q 221.915 61.496 233.088 61.496 Q 238.185 61.496 243.560 62.264 Q 248.935 63.032 254.680 64.554 Z M 293.819 87.682 Q 289.106 87.682 286.604 91.164 Q 284.102 94.632 284.102 101.252 Q 284.102 107.871 286.604 111.353 Q 289.106 114.821 293.819 114.821 Q 298.585 114.821 301.087 111.353 Q 303.589 107.871 303.589 101.252 Q 303.589 94.632 301.087 91.164 Q 298.585 87.682 293.819 87.682 Z M 303.589 117.681 Q 300.531 121.771 296.837 123.678 Q 293.157 125.584 288.325 125.584 Q 279.759 125.584 274.252 118.779 Q 268.758 111.962 268.758 101.252 Q 268.758 90.541 274.252 83.777 Q 279.759 77.012 288.325 77.012 Q 293.157 77.012 296.837 78.918 Q 300.531 80.811 303.589 84.915 L 303.589 78.044 L 318.482 78.044 L 318.482 142.000 L 303.589 142.000 L 303.589 117.681 Z M 332.214 106.335 L 332.214 78.044 L 347.107 78.044 L 347.107 82.678 Q 347.107 86.438 347.068 92.130 Q 347.028 97.823 347.028 99.716 Q 347.028 105.303 347.319 107.765 Q 347.610 110.227 348.312 111.353 Q 349.212 112.796 350.682 113.590 Q 352.151 114.371 354.058 114.371 Q 358.691 114.371 361.339 110.810 Q 363.987 107.249 363.987 100.921 L 363.987 78.044 L 378.801 78.044 L 378.801 124.379 L 363.987 124.379 L 363.987 117.681 Q 360.637 121.732 356.891 123.665 Q 353.144 125.584 348.643 125.584 Q 340.607 125.584 336.411 120.659 Q 332.214 115.735 332.214 106.335 Z M 413.794 103.529 Q 409.160 103.529 406.817 105.104 Q 404.487 106.666 404.487 109.737 Q 404.487 112.544 406.367 114.146 Q 408.260 115.735 411.609 115.735 Q 415.779 115.735 418.639 112.743 Q 421.499 109.737 421.499 105.223 L 421.499 103.529 L 413.794 103.529 Z M 436.432 97.942 L 436.432 124.379 L 421.499 124.379 L 421.499 117.509 Q 418.520 121.732 414.787 123.665 Q 411.066 125.584 405.731 125.584 Q 398.530 125.584 394.042 121.387 Q 389.554 117.178 389.554 110.479 Q 389.554 102.324 395.154 98.524 Q 400.767 94.712 412.761 94.712 L 421.499 94.712 L 421.499 93.560 Q 421.499 90.038 418.718 88.410 Q 415.952 86.768 410.074 86.768 Q 405.321 86.768 401.217 87.722 Q 397.126 88.675 393.605 90.581 L 393.605 79.289 Q 398.371 78.124 403.163 77.528 Q 407.969 76.932 412.761 76.932 Q 425.298 76.932 430.858 81.870 Q 436.432 86.808 436.432 97.942 Z M 484.630 90.661 Q 482.684 89.747 480.751 89.324 Q 478.832 88.887 476.886 88.887 Q 471.180 88.887 468.095 92.554 Q 465.011 96.208 465.011 103.026 L 465.011 124.379 L 450.210 124.379 L 450.210 78.044 L 465.011 78.044 L 465.011 85.656 Q 467.870 81.102 471.564 79.024 Q 475.270 76.932 480.447 76.932 Q 481.188 76.932 482.049 76.998 Q 482.922 77.051 484.577 77.263 L 484.630 90.661 Z M 538.237 101.093 L 538.237 105.303 L 503.618 105.303 Q 504.147 110.519 507.377 113.127 Q 510.608 115.735 516.393 115.735 Q 521.066 115.735 525.964 114.345 Q 530.876 112.954 536.052 110.148 L 536.052 121.560 Q 530.797 123.545 525.541 124.565 Q 520.285 125.584 515.029 125.584 Q 502.453 125.584 495.476 119.190 Q 488.512 112.796 488.512 101.252 Q 488.512 89.919 495.357 83.432 Q 502.201 76.932 514.209 76.932 Q 525.130 76.932 531.684 83.512 Q 538.237 90.078 538.237 101.093 Z M 523.012 96.168 Q 523.012 91.945 520.550 89.363 Q 518.087 86.768 514.116 86.768 Q 509.813 86.768 507.126 89.191 Q 504.438 91.614 503.777 96.168 L 523.012 96.168 Z M 550.120 62.608 L 593.093 62.608 L 593.093 74.655 L 566.046 74.655 L 566.046 86.146 L 591.491 86.146 L 591.491 98.193 L 566.046 98.193 L 566.046 112.345 L 594.006 112.345 L 594.006 124.379 L 550.120 124.379 L 550.120 62.608 Z M 638.857 84.822 L 638.857 60.000 L 653.750 60.000 L 653.750 124.379 L 638.857 124.379 L 638.857 117.681 Q 635.799 121.771 632.105 123.678 Q 628.425 125.584 623.593 125.584 Q 615.027 125.584 609.520 118.779 Q 604.026 111.962 604.026 101.252 Q 604.026 90.541 609.520 83.737 Q 615.027 76.932 623.593 76.932 Q 628.385 76.932 632.092 78.852 Q 635.799 80.771 638.857 84.822 Z M 629.087 114.821 Q 633.853 114.821 636.355 111.353 Q 638.857 107.871 638.857 101.252 Q 638.857 94.632 636.355 91.164 Q 633.853 87.682 629.087 87.682 Q 624.374 87.682 621.872 91.164 Q 619.370 94.632 619.370 101.252 Q 619.370 107.871 621.872 111.353 Q 624.374 114.821 629.087 114.821 Z M 667.985 78.044 L 682.786 78.044 L 682.786 124.379 L 667.985 124.379 L 667.985 78.044 Z M 667.985 60.000 L 682.786 60.000 L 682.786 72.087 L 667.985 72.087 L 667.985 60.000 Z M 713.192 64.885 L 713.192 78.044 L 728.469 78.044 L 728.469 88.635 L 713.192 88.635 L 713.192 108.281 Q 713.192 111.511 714.476 112.650 Q 715.760 113.789 719.573 113.789 L 727.185 113.789 L 727.185 124.379 L 714.476 124.379 Q 705.712 124.379 702.045 120.726 Q 698.391 117.058 698.391 108.281 L 698.391 88.635 L 691.017 88.635 L 691.017 78.044 L 698.391 78.044 L 698.391 64.885 L 713.192 64.885 Z"
    fill="#FFF"
    stroke="#000"
    stroke-width="2"
    stroke-linejoin="round"
    paint-order="stroke fill"/>
</svg>
